<svg width="512" height="512" viewBox="0 0 512 512" fill="none" xmlns="http://www.w3.org/2000/svg">
  <!-- Background -->
  <rect width="512" height="512" rx="24" fill="white"></rect>

  <!-- Graduation Cap -->
  <polygon points="256,60 380,120 256,180 132,120" fill="#0A2A66"></polygon>

  <rect x="180" y="120" width="152" height="28" rx="8" fill="#123D91"></rect>

  <line x1="370" y1="122" x2="370" y2="190" stroke="#0A2A66" stroke-width="6"></line>

  <circle cx="370" cy="195" r="8" fill="#0A2A66"></circle>

  <!-- Shield -->
  <path d="M150 160
           L150 300
           Q150 390 256 450
           Q362 390 362 300
           L362 160
           Z" fill="none" stroke="#0A2A66" stroke-width="18" stroke-linejoin="round"></path>

  <!-- People Icons -->
  <!-- Top Blue -->
  <circle cx="256" cy="210" r="18" fill="#1456C5"></circle>
  <path d="M220 255 L256 300 L292 255" stroke="#1456C5" stroke-width="18" stroke-linecap="round" stroke-linejoin="round"></path>

  <!-- Left Orange -->
  <circle cx="190" cy="255" r="16" fill="#F59E0B"></circle>
  <path d="M170 300 L210 260 L225 320" fill="#F59E0B"></path>

  <!-- Right Green -->
  <circle cx="322" cy="255" r="16" fill="#22C55E"></circle>
  <path d="M302 320 L317 260 L357 300" fill="#22C55E"></path>

  <!-- Bottom Purple -->
  <circle cx="256" cy="330" r="16" fill="#7C3AED"></circle>
  <path d="M220 355 Q256 410 292 355" stroke="#7C3AED" stroke-width="18" stroke-linecap="round"></path>

  <!-- Title -->
  <text x="256" y="485" text-anchor="middle" font-family="Poppins, Arial, sans-serif" font-size="36" font-weight="700" fill="#0A2A66">
    Uni Club Hub
  </text>
</svg>